<svg xmlns="http://www.w3.org/2000/svg" viewBox="0 0 800 450" width="100%" height="100%">
  <defs>
    <linearGradient id="bgPort" x1="0%" y1="0%" x2="100%" y2="100%">
      <stop offset="0%" stop-color="#0f172a"/>
      <stop offset="100%" stop-color="#020617"/>
    </linearGradient>
    <linearGradient id="cyanGrad" x1="0%" y1="0%" x2="100%" y2="100%">
      <stop offset="0%" stop-color="#38bdf8"/>
      <stop offset="100%" stop-color="#0284c7"/>
    </linearGradient>
    <linearGradient id="cardBgPort" x1="0%" y1="0%" x2="100%" y2="100%">
      <stop offset="0%" stop-color="#1e293b"/>
      <stop offset="100%" stop-color="#0f172a"/>
    </linearGradient>
  </defs>
  <rect width="800" height="450" fill="url(#bgPort)" rx="16"/>
  <rect x="40" y="30" width="720" height="390" fill="url(#cardBgPort)" rx="12" stroke="#334155" stroke-width="1.5"/>
  <circle cx="65" cy="55" r="5" fill="#ef4444"/>
  <circle cx="82" cy="55" r="5" fill="#f59e0b"/>
  <circle cx="99" cy="55" r="5" fill="#10b981"/>
  <text x="400" y="60" fill="#94a3b8" font-family="system-ui, sans-serif" font-size="13" font-weight="600" text-anchor="middle">Portafolio Profesional · Next.js 16 &amp; React 19</text>
  
  <rect x="70" y="90" width="660" height="290" fill="#0b1329" rx="10" stroke="#334155"/>
  <text x="100" y="135" fill="#38bdf8" font-family="system-ui, sans-serif" font-size="20" font-weight="800">Wesly Cagua · Full Stack Developer</text>
  <text x="100" y="165" fill="#94a3b8" font-family="monospace" font-size="13">Vue 3 · React · Next.js 16 · Node.js · TypeScript · Web3</text>

  <rect x="100" y="195" width="140" height="36" fill="url(#cyanGrad)" rx="8"/>
  <text x="170" y="218" fill="#ffffff" font-family="system-ui, sans-serif" font-size="12" font-weight="700" text-anchor="middle">Ver Experiencia</text>

  <rect x="255" y="195" width="140" height="36" fill="#1e293b" rx="8" stroke="#334155"/>
  <text x="325" y="218" fill="#e2e8f0" font-family="system-ui, sans-serif" font-size="12" font-weight="600" text-anchor="middle">Contacto Directo</text>

  <rect x="100" y="260" width="530" height="90" fill="#0f172a" rx="8" stroke="#1e293b"/>
  <text x="120" y="295" fill="#e2e8f0" font-family="system-ui, sans-serif" font-size="13" font-weight="600">⚡ SSG de Alto Rendimiento · Modo Oscuro / Claro · Micro-interacciones</text>
  <text x="120" y="325" fill="#64748b" font-family="monospace" font-size="12">Tailwind CSS v4 · Turbopack · Componentes Servidor / Cliente</text>
</svg>
